<svg width="47" height="50" viewBox="0 0 47 50" fill="none" xmlns="http://www.w3.org/2000/svg">
	<g filter="url(#filter0_d_4518_102517)">
		<path fill-rule="evenodd" clip-rule="evenodd"
			  d="M17.8983 8.85742C16.194 8.85742 14.8125 10.2093 14.8125 11.877V14.2207H14.1455C13.3171 14.2207 12.6455 14.8923 12.6455 15.7207C12.6455 16.5491 13.3171 17.2207 14.1455 17.2207H14.8125V19.3887H14.1455C13.3171 19.3887 12.6455 20.0602 12.6455 20.8887C12.6455 21.7171 13.3171 22.3887 14.1455 22.3887H14.8125V24.6875H14.1455C13.3171 24.6875 12.6455 25.3591 12.6455 26.1875C12.6455 27.0159 13.3171 27.6875 14.1455 27.6875H14.8125V29.9942C14.8125 31.6618 16.194 33.0137 17.8983 33.0137H31.4756C33.1798 33.0137 34.5614 31.6618 34.5614 29.9942V11.877C34.5614 10.2093 33.1798 8.85742 31.4756 8.85742H17.8983Z"
			  fill="url(#paint0_linear_4518_102517)" />
	</g>
	<mask id="mask0_4518_102517" style="mask-type:alpha" maskUnits="userSpaceOnUse" x="12" y="8" width="23" height="26">
		<path fill-rule="evenodd" clip-rule="evenodd"
			  d="M17.8983 8.85742C16.194 8.85742 14.8125 10.2093 14.8125 11.877V14.2207H14.1455C13.3171 14.2207 12.6455 14.8923 12.6455 15.7207C12.6455 16.5491 13.3171 17.2207 14.1455 17.2207H14.8125V19.3887H14.1455C13.3171 19.3887 12.6455 20.0602 12.6455 20.8887C12.6455 21.7171 13.3171 22.3887 14.1455 22.3887H14.8125V24.6875H14.1455C13.3171 24.6875 12.6455 25.3591 12.6455 26.1875C12.6455 27.0159 13.3171 27.6875 14.1455 27.6875H14.8125V29.9942C14.8125 31.6618 16.194 33.0137 17.8983 33.0137H31.4756C33.1798 33.0137 34.5614 31.6618 34.5614 29.9942V11.877C34.5614 10.2093 33.1798 8.85742 31.4756 8.85742H17.8983Z"
			  fill="url(#paint1_linear_4518_102517)" />
	</mask>
	<g mask="url(#mask0_4518_102517)">
		<rect x="19.8447" y="25.2207" width="12.7707" height="14.803" transform="rotate(-45 19.8447 25.2207)"
			  fill="url(#paint2_linear_4518_102517)" />
	</g>
	<path d="M23.6657 24.8666C23.4167 25.1155 23.1066 25.2943 22.7664 25.3849L21.0001 25.8556C20.4059 26.0139 19.8627 25.4707 20.021 24.8766L20.4917 23.1102C20.5824 22.7701 20.7612 22.4599 21.0101 22.211L27.2569 15.9641C27.6475 15.5736 28.2806 15.5736 28.6712 15.9641L29.9125 17.2055C30.303 17.596 30.303 18.2292 29.9125 18.6197L23.6657 24.8666Z"
		  fill="url(#paint3_linear_4518_102517)" />
	<defs>
		<filter id="filter0_d_4518_102517" x="0.645508" y="0.857422" width="45.916" height="48.1562"
				filterUnits="userSpaceOnUse" color-interpolation-filters="sRGB">
			<feFlood flood-opacity="0" result="BackgroundImageFix" />
			<feColorMatrix in="SourceAlpha" type="matrix" values="0 0 0 0 0 0 0 0 0 0 0 0 0 0 0 0 0 0 127 0"
						   result="hardAlpha" />
			<feOffset dy="4" />
			<feGaussianBlur stdDeviation="6" />
			<feComposite in2="hardAlpha" operator="out" />
			<feColorMatrix type="matrix" values="0 0 0 0 0.0901961 0 0 0 0 0.466667 0 0 0 0 0.94902 0 0 0 0.2 0" />
			<feBlend mode="normal" in2="BackgroundImageFix" result="effect1_dropShadow_4518_102517" />
			<feBlend mode="normal" in="SourceGraphic" in2="effect1_dropShadow_4518_102517" result="shape" />
		</filter>
		<linearGradient id="paint0_linear_4518_102517" x1="30.6043" y1="8.85742" x2="19.0421" y2="33.1517"
						gradientUnits="userSpaceOnUse">
			<stop offset="0.0555359" stop-color="#499DFF" />
			<stop offset="1" stop-color="#357AFF" />
		</linearGradient>
		<linearGradient id="paint1_linear_4518_102517" x1="30.6043" y1="8.85742" x2="19.0421" y2="33.1517"
						gradientUnits="userSpaceOnUse">
			<stop offset="0.0555359" stop-color="#499DFF" />
			<stop offset="1" stop-color="#357AFF" />
		</linearGradient>
		<linearGradient id="paint2_linear_4518_102517" x1="26.2301" y1="25.2207" x2="26.2301" y2="40.0237"
						gradientUnits="userSpaceOnUse">
			<stop stop-color="#0E62D4" />
			<stop offset="1" stop-color="#0E62D4" stop-opacity="0" />
		</linearGradient>
		<linearGradient id="paint3_linear_4518_102517" x1="19.6654" y1="26.2113" x2="29" y2="16.5"
						gradientUnits="userSpaceOnUse">
			<stop stop-color="#E1EEFF" />
			<stop offset="1" stop-color="white" />
		</linearGradient>
	</defs>
</svg>