<svg width="48" height="53" viewBox="0 0 48 53" fill="none" xmlns="http://www.w3.org/2000/svg">
	<g filter="url(#filter0_d_4518_102504)">
		<path d="M21.1001 8.07408C21.2049 8.08183 21.3063 8.11479 21.3957 8.17015C24.6098 10.1612 26.7002 12.7443 27.667 15.9195C28.2686 17.8954 29.7655 18.7629 30.4468 16.813L30.5148 16.6139C30.629 16.2719 30.9988 16.0873 31.3408 16.2016C31.4003 16.2214 31.4566 16.2498 31.5079 16.2857C34.3487 18.2715 35.7629 20.8383 35.7505 23.9861C35.7499 24.1383 35.7422 24.2907 35.7464 24.4428C35.7492 24.5445 35.7505 24.6467 35.7505 24.7492C35.7505 31.2387 30.4898 36.4995 24.0003 36.4995C17.5108 36.4995 12.25 31.2387 12.25 24.7492C12.25 24.4987 12.2578 24.2501 12.2733 24.0035C12.2737 23.9965 12.2691 23.9903 12.2623 23.9888C12.2553 23.9873 12.2505 23.9808 12.2511 23.9737C12.2736 23.7185 12.3065 23.4654 12.3499 23.2142C12.3675 23.0756 12.3879 22.938 12.4107 22.8013C12.4117 22.7952 12.4169 22.7907 12.4231 22.7905C12.4291 22.7903 12.4341 22.7862 12.4354 22.7804C12.9386 20.5163 14.3011 18.4168 16.5228 16.482C18.8012 14.4977 20.0856 11.9941 20.3759 8.97108L20.4009 8.6769C20.4275 8.31736 20.7406 8.04747 21.1001 8.07408Z"
			  fill="url(#paint0_linear_4518_102504)" />
	</g>
	<g filter="url(#filter1_d_4518_102504)">
		<path d="M24.5662 29.5828C21.3383 29.5828 18.7217 26.9661 18.7217 23.7383" stroke="white" stroke-width="2.5"
			  stroke-linecap="round" />
	</g>
	<defs>
		<filter id="filter0_d_4518_102504" x="0.25" y="0.0722656" width="47.501" height="52.4277"
				filterUnits="userSpaceOnUse" color-interpolation-filters="sRGB">
			<feFlood flood-opacity="0" result="BackgroundImageFix" />
			<feColorMatrix in="SourceAlpha" type="matrix" values="0 0 0 0 0 0 0 0 0 0 0 0 0 0 0 0 0 0 127 0"
						   result="hardAlpha" />
			<feOffset dy="4" />
			<feGaussianBlur stdDeviation="6" />
			<feComposite in2="hardAlpha" operator="out" />
			<feColorMatrix type="matrix" values="0 0 0 0 0.0901961 0 0 0 0 0.94902 0 0 0 0 0.845961 0 0 0 0.2 0" />
			<feBlend mode="normal" in2="BackgroundImageFix" result="effect1_dropShadow_4518_102504" />
			<feBlend mode="normal" in="SourceGraphic" in2="effect1_dropShadow_4518_102504" result="shape" />
		</filter>
		<filter id="filter1_d_4518_102504" x="14.4717" y="20.4883" width="14.3447" height="14.3438"
				filterUnits="userSpaceOnUse" color-interpolation-filters="sRGB">
			<feFlood flood-opacity="0" result="BackgroundImageFix" />
			<feColorMatrix in="SourceAlpha" type="matrix" values="0 0 0 0 0 0 0 0 0 0 0 0 0 0 0 0 0 0 127 0"
						   result="hardAlpha" />
			<feOffset dy="1" />
			<feGaussianBlur stdDeviation="1.5" />
			<feComposite in2="hardAlpha" operator="out" />
			<feColorMatrix type="matrix" values="0 0 0 0 0.0920362 0 0 0 0 0.662663 0 0 0 0 0.594187 0 0 0 0.88 0" />
			<feBlend mode="normal" in2="BackgroundImageFix" result="effect1_dropShadow_4518_102504" />
			<feBlend mode="normal" in="SourceGraphic" in2="effect1_dropShadow_4518_102504" result="shape" />
		</filter>
		<linearGradient id="paint0_linear_4518_102504" x1="24.0003" y1="-1.66059" x2="9.04634" y2="24.854"
						gradientUnits="userSpaceOnUse">
			<stop offset="0.0555359" stop-color="#9FEFE2" />
			<stop offset="1" stop-color="#17C5A1" />
		</linearGradient>
	</defs>
</svg>