<svg width="52" height="50" viewBox="0 0 52 50" fill="none" xmlns="http://www.w3.org/2000/svg">
	<g filter="url(#filter0_d_4518_102540)">
		<path fill-rule="evenodd" clip-rule="evenodd"
			  d="M17.8561 28.9024V24.4779C17.8561 23.9346 17.4157 23.4941 16.8724 23.4941H13.9212C13.3779 23.4941 12.9375 23.9346 12.9375 24.4779V32.3455C12.9375 33.1604 13.5981 33.8211 14.4131 33.8211H37.5858C38.4008 33.8211 39.0614 33.1604 39.0614 32.3455V24.4779C39.0614 23.9346 38.621 23.4941 38.0777 23.4941H35.1265C34.5832 23.4941 34.1428 23.9346 34.1428 24.4779V28.9024H17.8561ZM17.2204 24.1303C17.1314 24.0413 17.0085 23.9863 16.8727 23.9863H13.9216C13.6499 23.9863 13.4297 24.2065 13.4297 24.4782V32.3458C13.4297 32.6131 13.5362 32.8554 13.7092 33.0327C13.5361 32.8554 13.4294 32.6129 13.4294 32.3455V24.4779C13.4294 24.2062 13.6496 23.986 13.9212 23.986H16.8724C17.0083 23.986 17.1314 24.0411 17.2204 24.1303ZM38.4236 24.1281C38.3347 24.0403 38.2126 23.986 38.0777 23.986H35.1265C34.8549 23.986 34.6347 24.2062 34.6347 24.4779V28.9024C34.6347 29.1741 34.4144 29.3943 34.1428 29.3943H17.8561C17.7193 29.3943 17.5956 29.3385 17.5064 29.2483C17.5956 29.3386 17.7195 29.3946 17.8565 29.3946H34.1431C34.4148 29.3946 34.635 29.1744 34.635 28.9028V24.4782C34.635 24.2065 34.8552 23.9863 35.1269 23.9863H38.078C38.2127 23.9863 38.3348 24.0405 38.4236 24.1281Z"
			  fill="url(#paint0_linear_4518_102540)" />
	</g>
	<path fill-rule="evenodd" clip-rule="evenodd"
		  d="M25.5848 18.3803L18.4927 11.2881C18.1085 10.904 17.4857 10.904 17.1015 11.2881L15.0147 13.3749C14.6305 13.7591 14.6305 14.382 15.0147 14.7661L24.611 24.3624C25.1873 24.9387 26.1215 24.9387 26.6978 24.3624L36.2941 14.7661C36.6783 14.382 36.6783 13.7591 36.2941 13.3749L34.2073 11.2881C33.8231 10.904 33.2003 10.904 32.8161 11.2881L25.724 18.3803C25.6855 18.4187 25.6233 18.4187 25.5848 18.3803ZM25.5925 18.8977C25.4627 18.8841 25.3365 18.8276 25.237 18.7281L18.1449 11.6359C18.0481 11.5391 17.921 11.4911 17.7941 11.4919C17.921 11.4911 18.048 11.5391 18.1448 11.6359L25.237 18.7281C25.3365 18.8276 25.4627 18.8841 25.5925 18.8977ZM33.5589 11.4941C33.6686 11.5046 33.7754 11.5519 33.8594 11.6359L35.9462 13.7227C36.1383 13.9148 36.1383 14.2262 35.9462 14.4183L26.3499 24.0146C26.1556 24.209 25.9002 24.305 25.6455 24.3027C25.9002 24.305 26.1557 24.209 26.35 24.0146L35.9463 14.4183C36.1384 14.2262 36.1384 13.9148 35.9463 13.7227L33.8595 11.6359C33.7755 11.5519 33.6686 11.5046 33.5589 11.4941Z"
		  fill="#05CCFF" />
	<defs>
		<filter id="filter0_d_4518_102540" x="0.9375" y="15.4941" width="50.124" height="34.3262"
				filterUnits="userSpaceOnUse" color-interpolation-filters="sRGB">
			<feFlood flood-opacity="0" result="BackgroundImageFix" />
			<feColorMatrix in="SourceAlpha" type="matrix" values="0 0 0 0 0 0 0 0 0 0 0 0 0 0 0 0 0 0 127 0"
						   result="hardAlpha" />
			<feOffset dy="4" />
			<feGaussianBlur stdDeviation="6" />
			<feComposite in2="hardAlpha" operator="out" />
			<feColorMatrix type="matrix" values="0 0 0 0 0.490196 0 0 0 0 0.34902 0 0 0 0 1 0 0 0 0.2 0" />
			<feBlend mode="normal" in2="BackgroundImageFix" result="effect1_dropShadow_4518_102540" />
			<feBlend mode="normal" in="SourceGraphic" in2="effect1_dropShadow_4518_102540" result="shape" />
		</filter>
		<linearGradient id="paint0_linear_4518_102540" x1="25.9993" y1="5.11402" x2="42.5854" y2="10.0329"
						gradientUnits="userSpaceOnUse">
			<stop stop-color="#9476FF" />
			<stop offset="1" stop-color="#7751FF" />
		</linearGradient>
	</defs>
</svg>